<?xml version="1.0" standalone="no"?>
<!DOCTYPE svg PUBLIC "-//W3C//DTD SVG 1.1//EN" "http://www.w3.org/Graphics/SVG/1.1/DTD/svg11.dtd" >
<svg xmlns="http://www.w3.org/2000/svg" xmlns:xlink="http://www.w3.org/1999/xlink" version="1.1" viewBox="-10 0 1010 1000">
  <g transform="matrix(1 0 0 -1 0 800)">
   <path fill="currentColor"
d="M549 -195q-169 24 -288 153q-83 90 -115 206q-24 87 -16 149q1 3 1 6q16 82 88 123q53 30 112 21q48 -7 90 -43q7 -6 11 -11q31 -36 37 -64q1 -3 1 -5q1 -7 6 -9q5 0 8 29v2q7 73 36 137q14 33 14 38q-4 10 -163 126q-60 44 -71 48q-76 33 -147 -12q-13 -8 -23 -17
q-39 -34 -48 -91q-4 -30 5 -47q15 -29 -8 -53q-14 -14 -33 -14q-33 0 -43 33q-4 14 -2 30q21 119 114 180q67 42 149 39q65 -3 104 -37q24 -21 19 2q-1 2 -1 3q-4 25 31 49q37 24 83 24q63 0 108 -53q12 -13 20 -28q11 -21 11 -53v-11q0 -42 -11 -70q-1 -3 -2 -5
q-13 -32 -9 -38q9 -12 58 -22q7 -1 12 -2q51 -7 105 22q21 12 31 25q19 26 20 56q0 12 -7 15q-4 1 -8 1q-32 6 -46 41q-8 21 -3 40q11 41 51 50q42 9 67 -26l4 -6q26 -44 -6 -118q-19 -43 -50 -75q-69 -69 -165 -65q-32 1 -61 11l-25 9l-9 -20q-23 -55 -31 -123
q-2 -21 1 -25q4 -4 14 11l1 2q64 93 169 95q89 0 148 -63q68 -74 51 -169q-16 -86 -93 -137q-44 -28 -107 -31q-97 -4 -128 -63q-11 -21 -11 -44q0 -42 31 -70q26 -22 70 -22h16q39 2 65 15q4 1 7 3q42 21 65 52q7 9 7 14q0 16 18 28q3 2 6 3q21 8 39 -12q9 -12 10 -24
q0 -11 -19 -27q-7 -5 -10 -5q-8 -1 -37 -18q-152 -87 -318 -63zM571 611q28 64 -19 107q-31 28 -72 19q-18 -5 -28 -15q-17 -20 -11 -46q2 -8 7 -13q36 -31 97 -69q8 -5 10 -6q6 2 16 23z" />
  </g>

</svg>
