<?xml version="1.0" standalone="no"?>
<!DOCTYPE svg PUBLIC "-//W3C//DTD SVG 1.1//EN" "http://www.w3.org/Graphics/SVG/1.1/DTD/svg11.dtd" >
<svg xmlns="http://www.w3.org/2000/svg" xmlns:xlink="http://www.w3.org/1999/xlink" version="1.1" viewBox="-10 0 2191 2048">
  <g transform="matrix(1 0 0 -1 0 1638)">
   <path fill="currentColor"
d="M2101 1009q0 -117 -147 -281q30 -37 30 -116q0 -85 -42 -170q-49 -100 -123 -110q-22 -3 -47 -3q-163 0 -199 87q-182 -115 -502 -238q72 -37 72 -173q0 -79 -29 -151q-36 -87 -100 -108q-31 -10 -78 -10q-42 0 -114 28q-77 31 -95 62q-26 46 -26 117q0 19 6 38
q-16 17 -47 18q-34 -81 -39 -88q-29 -47 -77 -47q-66 0 -145 38q-92 44 -92 103q0 29 13 64q-43 16 -123 57q-117 78 -117 187q0 18 16 49q35 69 158 134q97 46 195 92q105 50 315 151q304 150 738 394q176 99 293 99q103 0 198 -59q108 -68 108 -164zM1944 612q0 60 -18 86
q-57 -59 -127 -118q-22 -63 -22 -108q0 -100 41 -100q50 0 91 98q35 82 35 142zM1756 373q-19 36 -19 99q0 32 7 65q-74 -58 -133 -97q6 -14 23 -39q26 -24 122 -28zM2045 1039q0 36 -71 91q-367 -310 -995 -619q-212 -107 -641 -309q76 -44 180 -44q79 0 268 62
q653 214 1059 591q200 186 200 228zM1945 1149q-15 12 -31 18q-230 -182 -807 -489q-209 -111 -418 -223q-240 -125 -426 -205q22 -24 34 -24q15 0 313 141q459 217 694 348q375 209 641 434zM1867 1180q-37 12 -66 12q-109 0 -292 -109q-223 -133 -621 -334
q-149 -76 -450 -223q-137 -65 -138 -65q-78 -39 -131 -78q0 -2 -1 -6q0 -19 24.5 -61t41.5 -42q21 0 472 233q361 186 501 262q227 123 345 192q247 145 315 219zM2036 954q-184 -257 -579 -488q-220 -129 -459 -225q-305 -123 -486 -123q-95 0 -228 57q-7 -18 -8 -40
q126 -55 285 -55q24 0 90 20q357 109 509 169q265 104 475 251q342 239 401 434zM1101 5q0 139 -65 139q-52 0 -83 -87q-25 -68 -25 -132q0 -139 65 -139q52 0 83 87q25 68 25 132zM950 137q-130 -35 -150 -48q-55 -36 -55 -140q0 -89 47 -126q36 -28 133 -42
q-39 53 -39 144q0 127 64 212zM735 77q-53 -11 -159 -38q-6 -16 -6 -26q0 -7 4 -18q18 16 36.5 32t42.5 16q18 0 62 -17q6 23 20 51zM605 -31q-16 -18 -35 -18q-38 0 -38 54q0 15 3 33h-28q-1 -41 -1 -31v-20q0 -79 42 -79q40 0 57 61zM185 248q-40 37 -58 88q-3 -5 -3 -19
q0 -45 41 -98q4 5 20 29zM249 199q-12 9 -35 27q-18 -29 -18 -38q0 -12 39 -36q7 29 14 47zM472 -79q-6 35 -6 68q0 21 3 48q-61 4 -112 20q-6 -23 -6 -38q0 -39 42 -68q37 -26 79 -30zM1919 591q0 -38 -18 -83q-21 -56 -52 -56q-27 0 -27 43q0 37 18 82q22 55 52 55
q27 0 27 -41zM1072 -11q0 -37 -13 -70q-17 -45 -47 -45q-39 0 -39 75q0 37 13 71q17 45 47 45q18 0 30 -30q9 -24 9 -46zM1887 599q-33 -13 -33 -107v-7q15 6 26 49t7 65zM1040 0q0 33 -7 33q-28 0 -28 -84q0 -43 7 -43q28 0 28 94z" />
  </g>

</svg>
